<svg xmlns="http://www.w3.org/2000/svg" width="12.001" height="12.001" viewBox="0 0 12.001 12.001"><g transform="translate(0 0)"><g transform="translate(1.989 6.12)"><path d="M88.436,263.4l-1.989-1.989a1.056,1.056,0,0,0-1.492,0,.352.352,0,0,0,0,.5l2.983,2.983a.352.352,0,0,0,.5,0A1.056,1.056,0,0,0,88.436,263.4Z" transform="translate(-84.852 -261.105)" fill="#08f"/></g><g transform="translate(1.595 8.418)"><g transform="translate(0 0)"><rect width="1.406" height="1.406" transform="translate(0 0.994) rotate(-45)" fill="#08f"/></g></g><g transform="translate(0 9.721)"><path d="M2.092,415.875,1.1,414.88a.643.643,0,0,0-1.1.455v.583a1.056,1.056,0,0,0,1.055,1.055h.583A.643.643,0,0,0,2.092,415.875Z" transform="translate(0 -414.691)" fill="#08f"/></g><g transform="translate(3.756 0)"><g transform="translate(0 0)"><path d="M168.1,0l-3.481.5a.352.352,0,0,0-.222.125l-4.141,4.981,1.07,1.07,3.232-3.232a.352.352,0,0,1,.5.5l-3.232,3.232,1.07,1.07L167.874,4.1A.353.353,0,0,0,168,3.882L168.5.4A.364.364,0,0,0,168.1,0Z" transform="translate(-160.255 0)" fill="#08f"/></g></g></g></svg>